<svg width="293" height="250" viewBox="0 0 293 250" fill="none" xmlns="http://www.w3.org/2000/svg">
<path d="M146.35 250C227.177 250 292.7 238.425 292.7 224.146C292.7 209.867 227.177 198.291 146.35 198.291C65.5232 198.291 0 209.867 0 224.146C0 238.425 65.5232 250 146.35 250Z" fill="#3F3D56"/>
<path d="M76.241 195.652C71.0476 187.932 68.7927 178.607 69.8851 169.367C70.9775 160.128 75.3449 151.585 82.1953 145.29C89.0457 138.994 97.9256 135.361 107.224 135.051C116.523 134.741 125.626 137.773 132.881 143.598C140.135 149.423 145.063 157.655 146.769 166.802C148.475 175.948 146.847 185.403 142.179 193.452C137.512 201.5 130.115 207.61 121.33 210.673C112.544 213.736 102.952 213.549 94.2927 210.146C93.7313 212.15 92.6817 213.983 91.238 215.482C89.7943 216.981 88.0015 218.098 86.0201 218.734C84.0387 219.37 81.9305 219.505 79.8842 219.126C77.838 218.747 75.9176 217.867 74.295 216.564C72.6723 215.261 71.398 213.576 70.5863 211.66C69.7745 209.744 69.4505 207.657 69.6433 205.585C69.8361 203.513 70.5397 201.521 71.6911 199.787C72.8425 198.054 74.4058 196.633 76.241 195.652Z" fill="#C1D3FE"/>
<path d="M93.2424 177.549C95.729 177.549 97.7448 175.534 97.7448 173.047C97.7448 170.56 95.729 168.545 93.2424 168.545C90.7558 168.545 88.74 170.56 88.74 173.047C88.74 175.534 90.7558 177.549 93.2424 177.549Z" fill="white"/>
<path d="M108.604 177.549C111.09 177.549 113.106 175.534 113.106 173.047C113.106 170.56 111.09 168.545 108.604 168.545C106.117 168.545 104.101 170.56 104.101 173.047C104.101 175.534 106.117 177.549 108.604 177.549Z" fill="white"/>
<path d="M123.965 177.549C126.451 177.549 128.467 175.534 128.467 173.047C128.467 170.56 126.451 168.545 123.965 168.545C121.478 168.545 119.462 170.56 119.462 173.047C119.462 175.534 121.478 177.549 123.965 177.549Z" fill="white"/>
<path d="M113.112 33.3703C113.112 33.3703 133.201 33.9165 136.519 35.1235C139.837 36.3306 141.32 44.9622 141.32 44.9622L125.723 49.8648L114.056 49.204L105.277 49.8244L110.179 36.9848L113.112 33.3703Z" fill="#2F2E41"/>
<path d="M113.979 26.7786C113.979 26.7786 115.301 31.8834 112.367 35.4979C109.434 39.1125 124.978 51.9924 124.978 51.9924L133.178 50.583C133.178 50.583 131.37 34.8977 133.798 30.9258C136.226 26.9539 113.979 26.7786 113.979 26.7786Z" fill="#9F616A"/>
<path opacity="0.1" d="M113.979 26.7786C113.979 26.7786 115.301 31.8834 112.367 35.4979C109.434 39.1125 124.978 51.9924 124.978 51.9924L133.178 50.583C133.178 50.583 131.37 34.8977 133.798 30.9258C136.226 26.9539 113.979 26.7786 113.979 26.7786Z" fill="black"/>
<path d="M168.514 176.032L150.421 200.025L162.768 207.234L179.762 179.43L168.514 176.032Z" fill="#9F616A"/>
<path d="M155.823 200.43C155.823 200.43 149.16 192.688 149.457 194.415C149.754 196.141 144.716 210.781 149.403 212.197C154.09 213.613 194.281 217.369 194.834 212.831C195.387 208.292 182.844 205.116 182.844 205.116C182.844 205.116 175.392 197.955 173.74 198.683C172.088 199.411 155.823 200.43 155.823 200.43Z" fill="#2F2E41"/>
<path d="M164.454 198.946L178.906 223.566L189.816 217.248L175.244 197.091L164.454 198.946Z" fill="#9F616A"/>
<path d="M187.267 140.372L182.978 146.441C182.978 146.441 162.532 174.838 164.704 177.131C166.875 179.424 175.918 188.089 180.517 186.41C185.116 184.731 201.456 155.707 201.456 155.707L197.194 138.666L187.267 140.372Z" fill="#3F3D56"/>
<path d="M99.1908 134.627C99.1908 134.627 103.77 143.171 115.375 146.064C126.981 148.957 139.105 154.871 139.537 154.797C139.969 154.722 141.189 154.068 141.486 155.795C141.783 157.521 144.966 160.529 144.966 160.529C144.966 160.529 157.785 204.091 162.681 204.139C167.577 204.186 177.638 200.679 177.847 199.31C178.056 197.941 162.856 153.455 162.708 152.591L160.927 142.233C160.927 142.233 181.03 145.443 182.904 146.01C184.779 146.576 201.456 155.707 201.456 155.707C201.456 155.707 218.456 143.454 202.555 131.08C186.654 118.705 159.322 109.629 159.322 109.629L149.517 106.871L140.972 106.361L139.714 101.536L119.475 102.703L98.3545 111.665L99.1908 134.627Z" fill="#3F3D56"/>
<path d="M125.901 36.9395C134.608 36.9395 141.666 29.8814 141.666 21.1747C141.666 12.468 134.608 5.40988 125.901 5.40988C117.195 5.40988 110.137 12.468 110.137 21.1747C110.137 29.8814 117.195 36.9395 125.901 36.9395Z" fill="#9F616A"/>
<path d="M111.639 33.8457L113.535 33.5198C113.535 33.5198 116.96 46.7055 127.554 48.8836C127.554 48.8836 132.781 42.6214 132.558 41.5648C132.335 40.5082 136.698 34.8707 139.017 38.0266C141.337 41.1825 138.451 96.7757 140.4 97.7738C142.349 98.7718 146.53 99.8305 143.165 103.519C139.8 107.208 126.434 112.171 123.474 110.458C120.513 108.745 114.465 94.2335 111.848 89.3512C109.232 84.469 105.044 67.8598 105.044 67.8598C105.044 67.8598 99.6963 49.6727 102.987 45.5524C106.278 41.4321 111.639 33.8457 111.639 33.8457Z" fill="#D0CDE1"/>
<path d="M126.727 102.287C126.374 106.159 125.771 110.005 124.921 113.799C124.148 116.887 123.248 118.751 122.22 118.671C119.599 118.475 118.407 122.32 117.793 126.752C117.136 131.455 117.136 136.819 116.776 138.715C116.3 141.22 113.249 143.132 107.154 142.57C103.524 142.157 99.9616 141.284 96.5524 139.97C88.3231 136.978 88.5667 112.714 89.9436 94.7087C90.7855 83.6727 92.0512 74.9827 92.0512 74.9827C92.0512 74.9827 89.5517 67.5265 88.752 62.4162C88.5928 61.4838 88.5131 60.5396 88.5137 59.5937C88.6355 55.1295 96.7854 43.0662 101.71 35.5517C106.641 28.0373 113.366 33.55 113.366 33.55L111.025 40.6143C111.025 40.6143 114.653 46.2117 114.679 51.5391C114.706 56.8664 123.364 60.711 126.473 63.29C128.427 64.9105 128.379 86.5429 126.727 102.287Z" fill="#2F2E41"/>
<path d="M133.572 36.0744C133.572 36.0744 134.14 36.7459 136.741 36.4183C139.861 36.0254 144.151 37.1048 145.147 40.0834C146.975 45.5456 152.127 67.7653 152.127 67.7653C152.127 67.7653 154.271 93.168 155.236 98.7786C156.2 104.389 155.721 109.359 156.672 112.306C157.623 115.253 147.285 106.81 143.475 107.909C139.665 109.008 137.217 94.7663 137.696 89.7963C138.175 84.8264 138.579 79.4248 137.257 74.32C135.936 69.2152 138.279 55.7046 138.191 52.6094C138.104 49.5141 129.79 41.713 133.572 36.0744Z" fill="#2F2E41"/>
<path d="M144.727 115.026C144.727 115.026 161.419 124.132 163.016 137.093C164.614 150.054 140.69 124.543 140.69 124.543L144.727 115.026Z" fill="#9F616A"/>
<path d="M154.255 105.834C154.255 105.834 159.37 131.615 167.338 130.245C175.305 128.876 162.887 104.351 162.887 104.351L154.255 105.834Z" fill="#9F616A"/>
<path d="M181.542 218.226C181.542 218.226 177.463 222.926 176.451 222.211C175.439 221.496 173.113 231.227 175.21 233.088C177.307 234.949 185.386 238.004 185.474 241.099C185.562 244.195 207.228 243.581 208.004 240.337C208.779 237.094 205.286 229.696 202.832 228.341C200.377 226.985 191.301 214.51 191.301 214.51C191.301 214.51 184.193 215.548 181.542 218.226Z" fill="#2F2E41"/>
<path opacity="0.1" d="M142.068 130.793C138.197 128.06 127.389 127.382 117.793 126.752C113.583 126.482 109.606 126.217 106.55 125.788C103.606 125.381 100.958 122.69 98.6071 118.682C95.0432 112.608 92.1624 103.499 89.9435 94.7087C90.7855 83.6727 92.0512 74.9826 92.0512 74.9826C92.0512 74.9826 89.5517 67.5264 88.752 62.4162C89.3157 61.6317 90.0418 60.9779 90.8809 60.4992C101.059 56.1303 110.776 99.1251 112.01 105.872C112.031 105.983 112.047 106.089 112.063 106.179C112.662 109.653 119.127 112.624 124.921 113.799C128.49 114.525 131.81 114.572 133.341 113.63C137.36 111.162 149.72 121.038 150.657 121.319C151.595 121.605 147.628 134.727 142.068 130.793Z" fill="black"/>
<path d="M90.8826 57.8526C90.8826 57.8526 83.485 61.3457 86.7354 77.6716C89.9858 93.9976 96.5338 121.754 106.548 123.143C116.562 124.532 136.502 124.215 142.066 128.146C147.629 132.078 151.594 118.955 150.657 118.672C149.72 118.389 137.359 108.516 133.34 110.984C129.321 113.452 113.028 109.143 112.064 103.533C111.1 97.9222 101.227 53.4086 90.8826 57.8526Z" fill="#2F2E41"/>
<path d="M144.19 50.0232L152.32 68.8884C152.32 68.8884 153.138 68.4801 154.089 71.427C155.04 74.3739 155.485 76.9634 157.151 78.8988C158.817 80.8341 166.228 108.442 166.45 109.737C166.673 111.031 156.214 115.495 153.877 111.898C151.54 108.3 144.19 50.0232 144.19 50.0232Z" fill="#2F2E41"/>
<path d="M116.932 20.9553C117.536 20.794 117.625 19.9918 117.645 19.3668C117.754 16.0197 119.769 12.5853 122.973 11.6109C124.203 11.2738 125.49 11.203 126.749 11.4032C128.546 11.6425 130.281 12.2214 131.862 13.109C132.696 13.5781 133.515 14.1432 134.461 14.2864C135.086 14.3811 137.793 15.168 138.415 15.2788C139.784 15.5222 141.056 16.7467 142.369 16.291C143.625 15.8551 143.903 14.2284 143.934 12.899C144.003 9.87019 141.704 5.67821 139.678 3.42502C138.142 1.71515 135.827 0.92586 133.565 0.515439C130.923 0.090845 128.245 -0.0720714 125.571 0.0290732C121.95 0.0936381 118.23 0.373064 114.966 1.93946C111.701 3.50585 108.959 6.62338 108.803 10.2407C108.77 10.9943 108.848 11.7509 108.785 12.5025C108.63 14.3359 107.656 15.992 107.2 17.7744C106.873 19.0821 106.824 20.4438 107.056 21.7716C107.288 23.0994 107.796 24.3639 108.547 25.4834C109.758 27.2663 111.662 28.8788 111.592 31.0333L114.219 28.3117C114.612 28.0121 114.889 27.587 115.006 27.1074C115.123 26.6277 115.072 26.1226 114.861 25.6762L113.931 22.0493C113.692 21.4019 113.664 20.6954 113.851 20.0309C114.847 17.5679 115.925 21.2242 116.932 20.9553Z" fill="#2F2E41"/>
<path d="M236.317 202.334C236.208 202.156 233.641 197.87 232.751 188.969C231.935 180.804 232.46 167.04 239.598 147.84C253.121 111.468 236.482 82.121 236.312 81.8287L237.132 81.3525C237.176 81.4266 241.469 88.9089 244.006 100.823C247.357 116.62 246.137 133.044 240.487 148.171C226.988 184.481 237.024 201.67 237.127 201.839L236.317 202.334Z" fill="#3F3D56"/>
<path d="M231.029 79.6931C234.435 79.6931 237.196 76.932 237.196 73.526C237.196 70.1199 234.435 67.3588 231.029 67.3588C227.623 67.3588 224.862 70.1199 224.862 73.526C224.862 76.932 227.623 79.6931 231.029 79.6931Z" fill="white"/>
<path d="M250.479 102.464C253.885 102.464 256.646 99.7027 256.646 96.2967C256.646 92.8907 253.885 90.1296 250.479 90.1296C247.073 90.1296 244.312 92.8907 244.312 96.2967C244.312 99.7027 247.073 102.464 250.479 102.464Z" fill="#3F3D56"/>
<path d="M237.196 117.644C240.602 117.644 243.363 114.883 243.363 111.477C243.363 108.071 240.602 105.31 237.196 105.31C233.79 105.31 231.029 108.071 231.029 111.477C231.029 114.883 233.79 117.644 237.196 117.644Z" fill="white"/>
<path d="M253.326 130.453C256.732 130.453 259.493 127.692 259.493 124.286C259.493 120.88 256.732 118.119 253.326 118.119C249.92 118.119 247.159 120.88 247.159 124.286C247.159 127.692 249.92 130.453 253.326 130.453Z" fill="white"/>
<path d="M232.452 150.377C235.858 150.377 238.62 147.616 238.62 144.21C238.62 140.804 235.858 138.043 232.452 138.043C229.046 138.043 226.285 140.804 226.285 144.21C226.285 147.616 229.046 150.377 232.452 150.377Z" fill="#3F3D56"/>
<path d="M240.043 202.561C240.043 202.561 233.875 187.38 252.377 175.995L240.043 202.561Z" fill="#3F3D56"/>
</svg>
