<svg width="60" height="60" viewBox="0 0 60 60" fill="none" xmlns="http://www.w3.org/2000/svg">
<g clip-path="url(#clip0)">
<path d="M26.7111 26.9567H25.3305C24.1942 26.9567 23.2697 27.8812 23.2697 29.0175V53.0671C23.2697 54.2034 24.1941 55.1279 25.3305 55.1279H26.7111C27.8474 55.1279 28.772 54.2034 28.772 53.0671V29.0175C28.772 27.8812 27.8476 26.9567 26.7111 26.9567ZM27.0134 53.0671C27.0134 53.2338 26.8779 53.3693 26.7111 53.3693H25.3305C25.1639 53.3693 25.0283 53.2338 25.0283 53.0671V29.0175C25.0283 28.8508 25.1638 28.7153 25.3305 28.7153H26.7111C26.8777 28.7153 27.0134 28.8508 27.0134 29.0175V53.0671Z" fill="#ABC4FF"/>
<path d="M19.2891 32.8933C18.8034 32.8933 18.4098 33.2869 18.4098 33.7726V53.0672C18.4098 53.2338 18.2742 53.3693 18.1075 53.3693H16.7269C16.5603 53.3693 16.4246 53.2338 16.4246 53.0672V33.5545C16.4246 33.0688 16.0309 32.6752 15.5453 32.6752C15.0597 32.6752 14.666 33.0688 14.666 33.5545V53.0672C14.666 54.2035 15.5905 55.1279 16.7269 55.1279H18.1075C19.2438 55.1279 20.1684 54.2035 20.1684 53.0672V33.7726C20.1684 33.2869 19.7747 32.8933 19.2891 32.8933Z" fill="#ABC4FF"/>
<path d="M35.4321 26.9568H34.0515C32.9152 26.9568 31.9907 27.8812 31.9907 29.0175V36.5383C31.9907 37.0241 32.3843 37.4176 32.87 37.4176C33.3558 37.4176 33.7493 37.0241 33.7493 36.5383V29.0175C33.7493 28.8509 33.8849 28.7154 34.0515 28.7154H35.4321C35.5988 28.7154 35.7344 28.8509 35.7344 29.0175V53.0672C35.7344 53.2338 35.5988 53.3693 35.4321 53.3693H34.0515C33.8849 53.3693 33.7493 53.2338 33.7493 53.0672V40.2856C33.7493 39.7999 33.3558 39.4063 32.87 39.4063C32.3843 39.4063 31.9907 39.7999 31.9907 40.2856V53.0672C31.9907 54.2035 32.9152 55.128 34.0515 55.128H35.4321C36.5684 55.128 37.493 54.2035 37.493 53.0672V29.0175C37.493 27.8812 36.5684 26.9568 35.4321 26.9568Z" fill="#ABC4FF"/>
<path d="M47.0989 19.9692H41.9643V18.0323C43.3289 17.2776 44.2552 15.8237 44.2552 14.1571C44.2552 12.975 43.7948 11.8635 42.959 11.0277C42.1231 10.1918 41.0117 9.73136 39.8296 9.73148H38.528V9.22887C38.528 6.78861 36.5426 4.80325 34.1024 4.80325H31.4371C31.144 2.10624 28.853 0 26.0794 0C23.3059 0 21.0149 2.10624 20.7218 4.80325H18.0565C15.6163 4.80325 13.6309 6.78861 13.6309 9.22887V9.73148H12.3293C9.88904 9.73148 7.90356 11.7168 7.90356 14.1571C7.90356 15.7755 8.77725 17.1931 10.0773 17.9649V54.2092C10.0773 57.4022 12.675 60 15.868 60H36.1737C39.3666 60 41.9644 57.4023 41.9644 54.2092V48.606H47.099C49.8547 48.606 52.0964 46.3643 52.0964 43.6086V24.9666C52.0963 22.211 49.8545 19.9692 47.0989 19.9692ZM12.3293 11.4901H14.5102C14.9958 11.4901 15.3895 11.0965 15.3895 10.6108V9.22887C15.3895 7.75831 16.586 6.56187 18.0565 6.56187H21.2762C21.9228 6.56187 22.4487 6.03592 22.4487 5.38934C22.4487 3.38733 24.0774 1.75862 26.0794 1.75862C28.0815 1.75862 29.7102 3.38733 29.7102 5.38934C29.7102 6.03592 30.2362 6.56187 30.8828 6.56187H34.1025C35.573 6.56187 36.7695 7.75831 36.7695 9.22887V10.6108C36.7695 11.0965 37.1631 11.4901 37.6488 11.4901H39.8297C40.5421 11.4901 41.2119 11.7674 41.7155 12.2712C42.2193 12.7749 42.4967 13.4447 42.4967 14.1571C42.4967 15.6277 41.3003 16.8241 39.8297 16.8241H25.5627C23.8876 16.8241 22.313 17.4763 21.1286 18.6607C19.9442 19.8452 19.2919 21.4198 19.2919 23.0947V28.0327C19.2919 28.8864 18.5974 29.581 17.7436 29.581C16.8899 29.581 16.1953 28.8864 16.1953 28.0327V18.7563C16.1953 17.6909 15.3284 16.8241 14.263 16.8241H12.3292C10.8586 16.8241 9.66218 15.6277 9.66218 14.1571C9.66218 12.6865 10.8586 11.4901 12.3293 11.4901ZM12.3292 18.5827H14.263C14.3587 18.5827 14.4367 18.6607 14.4367 18.7563V21.4463H11.8359V18.5546C11.998 18.5726 12.1625 18.5827 12.3292 18.5827ZM36.1737 58.2414H15.868C13.6447 58.2414 11.8359 56.4326 11.8359 54.2092V23.2051H14.4367V28.0328C14.4367 29.8563 15.9202 31.3397 17.7436 31.3397C19.5671 31.3397 21.0505 29.8563 21.0505 28.0328V23.2051H32.8681C33.3538 23.2051 33.7474 22.8115 33.7474 22.3258C33.7474 21.84 33.3538 21.4464 32.8681 21.4464H21.3611C21.5849 20.8754 21.9252 20.3511 22.3721 19.9044C23.2243 19.052 24.3574 18.5828 25.5625 18.5828H39.8296C39.9563 18.5828 40.0816 18.5763 40.2057 18.5657V21.4466H36.6153C36.1296 21.4466 35.736 21.8401 35.736 22.3259C35.736 22.8116 36.1296 23.2052 36.6153 23.2052H40.2057V54.2093C40.2057 56.4326 38.397 58.2414 36.1737 58.2414ZM50.3377 43.6086C50.3377 45.3945 48.8847 46.8474 47.0989 46.8474H41.9643V44.8543H47.0989C47.7857 44.8543 48.3446 44.2954 48.3446 43.6086V32.8556C48.3446 32.3699 47.951 31.9763 47.4653 31.9763C46.9795 31.9763 46.586 32.3699 46.586 32.8556V43.0957H41.9643V25.4795H46.586V29.1084C46.586 29.5941 46.9795 29.9877 47.4653 29.9877C47.951 29.9877 48.3446 29.5941 48.3446 29.1084V24.9666C48.3446 24.2798 47.7857 23.7209 47.0989 23.7209H41.9643V21.7278H47.0989C48.8847 21.7278 50.3377 23.1808 50.3377 24.9666V43.6086Z" fill="#ABC4FF"/>
</g>
<defs>
<clipPath id="clip0">
<rect width="60" height="60" fill="white"/>
</clipPath>
</defs>
</svg>
