<svg width="60" height="60" viewBox="0 0 60 60" fill="none" xmlns="http://www.w3.org/2000/svg">
<path d="M58.837 12.0581C58.8331 12.0581 58.8291 12.0581 58.8254 12.0581H54.8827V10.709C54.904 10.1751 54.5585 9.69518 54.0454 9.54603C51.3082 8.82874 48.4896 8.46907 45.66 8.47605C41.0079 8.47605 34.6695 9.52277 29.9826 14.2911C25.3305 9.47625 18.9455 8.47605 14.3051 8.47605C11.4755 8.46907 8.65691 8.82874 5.91975 9.54603C5.40657 9.69518 5.06116 10.1751 5.08238 10.709V12.0465H1.16302C0.52074 12.0465 0 12.5673 0 13.2095V50.3563C0 50.9985 0.52074 51.5193 1.16302 51.5193C1.36276 51.5187 1.55902 51.4666 1.73289 51.3681C1.8492 51.3099 13.4794 44.9482 29.7151 49.0421H29.8895H29.9942C30.0869 49.0532 30.1806 49.0532 30.2733 49.0421C46.5555 44.9133 58.1857 51.2634 58.2555 51.3681C58.6153 51.5758 59.0587 51.5758 59.4185 51.3681C59.7761 51.1616 59.9975 50.7809 60 50.3679V13.2212C60 12.5789 59.4794 12.0581 58.837 12.0581ZM2.32603 48.5071V14.3842H5.10564V43.5526C5.09837 44.1949 5.61315 44.7215 6.25543 44.7287C6.31823 44.7294 6.38103 44.7251 6.44311 44.7156C8.8491 44.3483 11.2782 44.1539 13.712 44.1341C17.0833 44.0757 20.4404 44.5828 23.6441 45.6344C16.4094 44.7595 9.07109 45.7484 2.32603 48.5071ZM13.712 41.8197C11.5966 41.8245 9.48367 41.9604 7.38515 42.2268V11.6278C9.64954 11.1234 11.9619 10.8659 14.2818 10.8602C18.6315 10.8602 24.6327 11.8604 28.7963 16.559L28.8312 45.5297C26.4121 43.948 21.6903 41.8197 13.712 41.8197ZM31.1572 16.559C35.3208 11.9069 41.322 10.8602 45.6716 10.8602C47.9914 10.8671 50.3038 11.1244 52.5683 11.6278V42.2268C50.4816 41.958 48.3803 41.8181 46.2764 41.8081C38.3446 41.8081 33.6112 43.9364 31.1572 45.5181V16.559ZM57.6623 48.5071C50.9029 45.7408 43.5477 44.7518 36.2977 45.6344C39.5165 44.579 42.8897 44.0718 46.2764 44.1341C48.7254 44.1478 51.1702 44.3382 53.5918 44.704C54.2268 44.8004 54.8198 44.3637 54.9162 43.7287C54.9256 43.6666 54.93 43.6038 54.9292 43.541V14.3842H57.7089L57.6623 48.5071Z" fill="#ABC4FF"/>
</svg>
