<svg width="60" height="60" viewBox="0 0 60 60" fill="none" xmlns="http://www.w3.org/2000/svg">
<path d="M30 60C13.4578 60 0 46.5422 0 30C0 13.4578 13.4581 0 30 0C46.5419 0 60 13.4578 60 30C60 46.5422 46.5422 60 30 60ZM30 1.22449C14.1334 1.22449 1.22449 14.1331 1.22449 30C1.22449 45.8669 14.1331 58.7755 30 58.7755C45.8669 58.7755 58.7755 45.8669 58.7755 30C58.7755 14.1331 45.8669 1.22449 30 1.22449ZM30 53.5093C17.0369 53.5093 6.49071 42.9631 6.49071 30C6.49071 17.0369 17.0369 6.49071 30 6.49071C42.9631 6.49071 53.5096 17.0369 53.5096 30C53.5096 42.9631 42.9631 53.5093 30 53.5093ZM30 7.7152C17.7122 7.7152 7.7152 17.7119 7.7152 30C7.7152 42.2878 17.7122 52.2848 30 52.2848C42.2878 52.2848 52.2848 42.2878 52.2848 30C52.2851 17.7119 42.2878 7.7152 30 7.7152ZM30 46.4721C20.9173 46.4721 13.5279 39.0827 13.5279 30C13.5279 20.9173 20.9173 13.5279 30 13.5279C39.0827 13.5279 46.4721 20.9173 46.4721 30C46.4721 39.0827 39.083 46.4721 30 46.4721ZM30 14.7523C21.5923 14.7523 14.7523 21.5923 14.7523 30C14.7523 38.4077 21.5923 45.2477 30 45.2477C38.4073 45.2477 45.2477 38.4077 45.2477 30C45.2477 21.5923 38.4077 14.7523 30 14.7523ZM35.8047 38.0669C35.7073 38.0669 35.6094 38.0437 35.5197 37.9968L30 35.0948L24.4803 37.9965C24.2743 38.1049 24.0242 38.0868 23.8356 37.95C23.647 37.8129 23.5528 37.5808 23.5922 37.3512L24.6462 31.2049L20.1808 26.8521C20.014 26.6896 19.954 26.4462 20.0259 26.2246C20.0979 26.003 20.2895 25.8416 20.52 25.808L26.6911 24.9113L29.4511 19.3191C29.5543 19.11 29.767 18.9778 30 18.9778C30.233 18.9778 30.446 19.11 30.5489 19.3191L33.3089 24.9113L39.4797 25.808C39.7105 25.8413 39.9021 26.003 39.9741 26.2246C40.046 26.4462 39.986 26.6896 39.8192 26.8521L35.3538 31.2049L36.4078 37.3512C36.4469 37.5808 36.3523 37.8129 36.1641 37.95C36.0579 38.0274 35.9314 38.0669 35.8047 38.0669ZM21.9239 26.8414L25.7314 30.5532C25.8756 30.6937 25.9417 30.8966 25.9074 31.095L25.0087 36.3358L29.7153 33.8614C29.8938 33.7678 30.1065 33.7678 30.285 33.8614L34.9916 36.3358L34.0926 31.095C34.0589 30.8966 34.1244 30.6937 34.2686 30.5532L38.0761 26.8414L32.8145 26.0767C32.6149 26.048 32.4426 25.9228 32.3532 25.7418L30 20.9737L27.6468 25.7418C27.5575 25.9224 27.3854 26.048 27.1858 26.0767L21.9239 26.8414Z" fill="#ABC4FF"/>
</svg>
