<svg width="60" height="60" viewBox="0 0 60 60" fill="none" xmlns="http://www.w3.org/2000/svg">
<path d="M57.1875 1.875H21.5625C21.3139 1.875 21.0754 1.97377 20.8996 2.14959C20.7238 2.3254 20.625 2.56386 20.625 2.8125V5.625C20.625 5.77054 20.6589 5.91409 20.724 6.04426C20.7891 6.17444 20.8836 6.28767 21 6.375L25.6263 9.84469L24.0785 10.3603C23.8918 10.4226 23.7294 10.542 23.6144 10.7017C23.4993 10.8613 23.4374 11.0532 23.4375 11.25V12.9727L20.7431 21.0559L19.2579 22.541L18.722 20.3974C18.6654 20.1712 18.5266 19.9741 18.3326 19.8448L15.5201 17.9698C15.366 17.8672 15.1851 17.8124 15 17.8125H12.1875C12.1875 17.5639 12.0887 17.3254 11.9129 17.1496C11.7371 16.9738 11.4986 16.875 11.25 16.875H10.3125C9.0693 16.875 7.87701 17.3689 6.99794 18.2479C6.11886 19.127 5.625 20.3193 5.625 21.5625C5.625 22.8057 6.11886 23.998 6.99794 24.8771C7.87701 25.7561 9.0693 26.25 10.3125 26.25H11.25C11.4072 26.25 11.5619 26.2104 11.6998 26.1348C11.8377 26.0592 11.9543 25.9501 12.0389 25.8176L12.1875 25.8919V28.6281C12.1852 29.7182 12.5307 30.7806 13.1737 31.6609L18.1881 38.5557C18.8691 39.4944 19.7111 40.3049 20.675 40.9496C20.6421 41.0464 20.6252 41.1478 20.625 41.25V45.9375C20.625 46.1861 20.7238 46.4246 20.8996 46.6004C21.0754 46.7762 21.3139 46.875 21.5625 46.875H25.7812C26.3358 46.8751 26.8814 46.7346 27.367 46.4667C27.8526 46.1987 28.2623 45.812 28.5578 45.3428C28.8534 44.8735 29.0252 44.3369 29.0571 43.7833C29.089 43.2296 28.98 42.6768 28.7404 42.1767C29.8385 42.1269 30.9205 41.8925 31.9409 41.4834L34.8681 40.3125H35.3565C35.0566 41.9813 35.2531 43.7015 35.9216 45.2597L37.5757 49.1193C37.6393 49.2664 37.7397 49.3947 37.8671 49.4918C37.8825 49.5147 37.9004 49.5359 37.9205 49.5548C39.2804 50.8486 41.0871 51.5678 42.9641 51.5625C43.1954 51.5625 43.4215 51.4946 43.6146 51.3673C43.8076 51.24 43.9591 51.0589 44.0502 50.8464L46.101 46.0604L46.8744 50.7026V53.4375C46.8744 53.5831 46.9083 53.7266 46.9734 53.8568L48.8484 57.6068C48.9263 57.7626 49.0461 57.8936 49.1943 57.9851C49.3425 58.0767 49.5133 58.1251 49.6875 58.125H57.1875C57.4361 58.125 57.6746 58.0262 57.8504 57.8504C58.0262 57.6746 58.125 57.4361 58.125 57.1875V2.8125C58.125 2.56386 58.0262 2.3254 57.8504 2.14959C57.6746 1.97377 57.4361 1.875 57.1875 1.875ZM41.625 24.2633L45.9375 30.3004V32.8125H42.7184L38.3933 25.6042C37.9941 24.9336 37.3681 24.4281 36.6285 24.179C35.889 23.9299 35.0847 23.9537 34.3611 24.2461L32.4479 25.0113L32.6966 24.0168L34.8625 22.5729L41.625 24.2633ZM45.9375 43.0144L44.4818 42.2865C44.3717 42.2315 44.2518 42.1986 44.129 42.1899C44.0061 42.1812 43.8828 42.1967 43.766 42.2357L41.9613 42.8373L41.1848 38.9546C41.2854 38.9671 41.3867 38.9734 41.488 38.9736C41.7261 38.9736 45.9379 37.8054 45.9379 37.8054L45.9375 43.0144ZM32.6892 33.75L34.4718 31.0762C34.9923 32.0997 35.7121 33.0088 36.5891 33.75H32.6892ZM32.4296 19.8659L33.3874 21.3025L31.3549 22.6575C31.1609 22.7869 31.0221 22.9839 30.9655 23.2102L30.0909 26.7081L28.5558 28.2432L23.6449 29.8802L22.9107 28.5954L26.5979 27.1206C26.7882 27.0445 26.9483 26.9082 27.0537 26.7325C27.0537 26.7325 29.8896 22.0034 29.9007 21.9819L30.6647 20.4543L32.4296 19.8659ZM40.8105 36.5651L40.4951 35.303L42.3398 34.6875H45.9375V35.8554L41.6861 37.07C41.5954 37.096 41.5004 37.1034 41.4068 37.0919C41.3131 37.0803 41.2228 37.0501 41.1411 37.0029C41.0594 36.9558 40.988 36.8926 40.9313 36.8173C40.8745 36.742 40.8334 36.656 40.8105 36.5645V36.5651ZM40.1634 33.4371L39.5445 33.6434L38.1203 32.5752C37.0129 31.747 36.1859 30.5995 35.7504 29.287L35.577 28.7666C35.5215 28.6001 35.4203 28.4525 35.2851 28.3407C35.1499 28.2288 34.986 28.1571 34.812 28.1338C34.638 28.1105 34.461 28.1365 34.3011 28.2089C34.1412 28.2812 34.0049 28.397 33.9075 28.543L30.9792 32.9354L29.3055 30.1464L32.4023 27.049L35.0578 25.9867C35.3679 25.8614 35.7126 25.8513 36.0296 25.9581C36.3466 26.0648 36.6149 26.2815 36.786 26.5689L40.7828 33.2302L40.1634 33.4371ZM26.4859 30.9096L25.3322 32.8323L24.5939 31.5403L26.4859 30.9096ZM28.125 31.8221L29.2816 33.75H26.9684L28.125 31.8221ZM31.875 18.0743L29.7035 18.7982C29.5867 18.8371 29.4787 18.8986 29.3857 18.9792C29.2927 19.0599 29.2166 19.1581 29.1615 19.2682L28.24 21.111L25.6085 25.4968L24.1852 26.0662L27.0129 22.1074C27.1002 21.9852 27.1568 21.8437 27.1781 21.695L28.0461 15.6189L29.4818 14.901C29.6375 14.8231 29.7685 14.7034 29.86 14.5553C29.9515 14.4072 30 14.2366 30 14.0625V12.7669L31.875 13.7044V18.0743ZM14.7162 19.6875L16.556 20.9143C16.0629 21.6335 15.4141 22.2322 14.6578 22.6661C13.9015 23.1001 13.0572 23.358 12.1875 23.4207V19.6875H14.7162ZM7.5 21.5625C7.50087 20.8168 7.79746 20.102 8.32472 19.5747C8.85198 19.0475 9.56685 18.7509 10.3125 18.75V24.375C9.56685 24.3741 8.85198 24.0775 8.32472 23.5503C7.79746 23.023 7.50087 22.3082 7.5 21.5625ZM19.7045 37.4531L14.69 30.5583C14.2809 29.998 14.061 29.3219 14.0625 28.6281V25.3125C14.0619 25.1987 14.0405 25.0859 13.9992 24.9798C15.3029 24.5861 16.4778 23.8514 17.4023 22.8516L17.8402 24.6027C17.8804 24.7636 17.9626 24.911 18.0784 25.0298C18.1942 25.1486 18.3395 25.2345 18.4994 25.2788C18.6593 25.3231 18.8281 25.3242 18.9885 25.2819C19.1489 25.2397 19.2953 25.1556 19.4126 25.0383L22.2251 22.2258C22.3279 22.1228 22.4055 21.9974 22.4516 21.8593C22.4516 21.8593 25.3125 13.2258 25.3125 13.125V11.9257L27.1155 11.3246L28.125 11.8294V13.4831L26.7682 14.1615C26.6326 14.2293 26.5155 14.3289 26.4269 14.4519C26.3383 14.5748 26.2808 14.7174 26.2594 14.8675L25.3542 21.2037L20.8448 27.5168L19.0246 29.3371C18.9375 29.4241 18.8685 29.5275 18.8214 29.6412C18.7742 29.755 18.75 29.8769 18.75 30V31.875C18.75 32.1236 18.8488 32.3621 19.0246 32.5379C19.2004 32.7137 19.4389 32.8125 19.6875 32.8125C19.9361 32.8125 20.1746 32.7137 20.3504 32.5379C20.5262 32.3621 20.625 32.1236 20.625 31.875V30.3882L21.3574 29.6558L24.3026 34.8097L22.8179 40.0058C21.5775 39.4374 20.505 38.5581 19.7045 37.4531ZM25.7812 45H22.5V42.1875H25.7812C26.1542 42.1875 26.5119 42.3357 26.7756 42.5994C27.0393 42.8631 27.1875 43.2208 27.1875 43.5938C27.1875 43.9667 27.0393 44.3244 26.7756 44.5881C26.5119 44.8518 26.1542 45 25.7812 45ZM31.2444 39.7426C30.3033 40.1199 29.2986 40.3134 28.2847 40.3125H24.6804L26.0197 35.625H32.9814L33.6154 38.7942L31.2444 39.7426ZM37.6451 44.5211C36.9885 42.9907 36.9172 41.2724 37.4448 39.6929L37.4524 39.6702C37.4992 39.5293 37.5118 39.3793 37.4892 39.2326C37.4667 39.0859 37.4096 38.9466 37.3227 38.8262C37.2358 38.7059 37.1216 38.6079 36.9894 38.5403C36.8573 38.4727 36.7109 38.4375 36.5625 38.4375H35.4561L34.8936 35.625H37.4531C37.778 35.6257 38.0927 35.7386 38.3439 35.9446C38.5952 36.1506 38.7676 36.437 38.8321 36.7554L40.2592 43.8908L38.5764 46.6955L37.6451 44.5211ZM44.637 44.7171L42.585 49.5052C42.5648 49.553 42.5298 49.5932 42.485 49.6196C42.4403 49.6461 42.3883 49.6575 42.3366 49.6521C41.4339 49.5503 40.5714 49.2228 39.8288 48.6997C39.7778 48.6642 39.7422 48.6107 39.7291 48.55C39.7159 48.4894 39.7262 48.426 39.7579 48.3725L41.8295 44.9196C41.8596 44.8699 41.9064 44.8325 41.9616 44.8141L43.8952 44.1696C43.9256 44.1595 43.9577 44.1554 43.9896 44.1577C44.0216 44.16 44.0528 44.1685 44.0815 44.1829L44.5223 44.4033C44.5778 44.4312 44.6204 44.4792 44.6417 44.5375C44.6629 44.5958 44.6612 44.6601 44.6367 44.7171H44.637ZM56.25 56.25H53.2942L51.5625 45.8599V42.1875C51.5625 41.9389 51.4637 41.7004 51.2879 41.5246C51.1121 41.3488 50.8736 41.25 50.625 41.25C50.3764 41.25 50.1379 41.3488 49.9621 41.5246C49.7863 41.7004 49.6875 41.9389 49.6875 42.1875V45.9375C49.6875 45.9891 49.6917 46.0407 49.7002 46.0916L51.3933 56.25H50.2669L48.75 53.2161V50.625C48.75 50.5734 48.7458 50.5218 48.7373 50.4709L47.8125 44.9224V30C47.8125 29.8046 47.7515 29.6141 47.6379 29.4551L42.9504 22.8926C42.8209 22.7113 42.631 22.582 42.4148 22.528L39.375 21.768V17.3767L41.7701 15.78C41.9755 15.6414 42.1177 15.4272 42.1656 15.1841C42.2136 14.941 42.1633 14.6888 42.0259 14.4827C41.8884 14.2765 41.6749 14.1332 41.4321 14.084C41.1893 14.0347 40.9368 14.0836 40.7299 14.22L37.9174 16.095C37.789 16.1806 37.6837 16.2966 37.6109 16.4327C37.5381 16.5687 37.5 16.7207 37.5 16.875V21.2993L35.2664 20.7409L33.75 18.4662V13.125C33.75 12.9509 33.7015 12.7803 33.61 12.6322C33.5185 12.4841 33.3875 12.3644 33.2318 12.2865L29.5574 10.4493L22.5 5.15625V3.75H34.6875V7.5C34.6875 7.65433 34.7256 7.80627 34.7984 7.94233C34.8712 8.0784 34.9765 8.19439 35.1049 8.28L37.5 9.87668V12.1875C37.5 12.4361 37.5988 12.6746 37.7746 12.8504C37.9504 13.0262 38.1889 13.125 38.4375 13.125C38.6861 13.125 38.9246 13.0262 39.1004 12.8504C39.2762 12.6746 39.375 12.4361 39.375 12.1875V9.375C39.375 9.22067 39.3369 9.06873 39.2641 8.93267C39.1913 8.7966 39.086 8.68061 38.9576 8.595L36.5625 6.99832V3.75H48.75V8.04926L46.2121 10.5871C46.125 10.6741 46.056 10.7775 46.0089 10.8912C45.9617 11.005 45.9375 11.1269 45.9375 11.25V16.875C45.9375 17.0601 45.9923 17.2411 46.095 17.3951L47.8125 19.9713V22.5C47.8125 22.6193 47.8352 22.7374 47.8795 22.8482L49.6875 27.3681V31.875C49.6875 32.1236 49.7863 32.3621 49.9621 32.5379C50.1379 32.7137 50.3764 32.8125 50.625 32.8125C50.8736 32.8125 51.1121 32.7137 51.2879 32.5379C51.4637 32.3621 51.5625 32.1236 51.5625 31.875V27.1875C51.5625 27.0682 51.5398 26.9501 51.4955 26.8393L49.6875 22.3194V19.6875C49.6875 19.5024 49.6327 19.3214 49.53 19.1674L47.8125 16.5912V11.6382L50.3504 9.10043C50.4375 9.01337 50.5065 8.91002 50.5536 8.79627C50.6008 8.68253 50.625 8.56062 50.625 8.4375V3.75H56.25V56.25Z" fill="#ABC4FF"/>
</svg>
