<svg width="60" height="60" viewBox="0 0 60 60" fill="none" xmlns="http://www.w3.org/2000/svg">
<g clip-path="url(#clip0)">
<path d="M58.8281 24.1992H49.2188V21.7187C49.2188 21.0715 48.694 20.5468 48.0469 20.5468H22.7344C22.0873 20.5468 21.5625 21.0715 21.5625 21.7187C21.5625 22.3659 22.0873 22.8906 22.7344 22.8906H46.875V31.8749C46.875 39.7672 42.6613 47.1024 35.8573 51.0936H13.3615C6.55746 47.1026 2.34375 39.7672 2.34375 31.875V22.8907H10.1953C10.8424 22.8907 11.3672 22.366 11.3672 21.7188C11.3672 21.0716 10.8424 20.5469 10.1953 20.5469H1.17188C0.524766 20.5469 0 21.0716 0 21.7188V31.875C0 36.3047 1.19062 40.6481 3.4432 44.4355C4.9623 46.9898 6.9334 49.2455 9.24164 51.0937H1.17188C0.524766 51.0937 0 51.6184 0 52.2656C0 56.5304 3.46957 60 7.73438 60H44.2969C48.5617 60 52.0312 56.5304 52.0312 52.2656C52.0312 51.6184 51.5065 51.0937 50.8594 51.0937H39.9771C42.1016 49.3926 43.9395 47.3457 45.4031 45.039H48.711C54.9357 45.039 60 39.9748 60 33.75V25.3711C60 24.7239 59.4754 24.1992 58.8281 24.1992ZM49.5592 53.4375C49.0227 55.8483 46.8669 57.6562 44.2969 57.6562H7.73438C5.16434 57.6562 3.00867 55.8483 2.47207 53.4375H13.0475H36.1712H49.5592ZM49.2188 31.875V31.2305H52.9688V33.75C52.9688 36.0977 51.0587 38.0078 48.711 38.0078H48.4448C48.9564 36.0149 49.2188 33.9545 49.2188 31.875ZM57.6562 33.75C57.6562 38.6824 53.6434 42.6953 48.711 42.6953H46.7164C47.0906 41.9311 47.4248 41.1487 47.7169 40.3515H48.711C52.3512 40.3515 55.3125 37.3901 55.3125 33.75V30.0586C55.3125 29.4114 54.7877 28.8867 54.1406 28.8867H49.2188V26.543H57.6562V33.75Z" fill="#ABC4FF"/>
<path d="M25.7284 6.48551L25.1187 5.71992C24.2236 4.59633 24.2223 3.02566 25.1155 1.90043C25.5179 1.39347 25.4331 0.656365 24.9261 0.25406C24.4191 -0.148479 23.6821 -0.0635181 23.2796 0.443435C21.7044 2.42812 21.7068 5.19832 23.2854 7.18019L23.8951 7.94578C25.0648 9.41414 25.0665 11.4667 23.8993 12.9373L23.2745 13.7245C22.8721 14.2315 22.9569 14.9686 23.4639 15.3709C23.6794 15.5419 23.9364 15.625 24.1916 15.625C24.5368 15.625 24.8789 15.4731 25.1103 15.1815L25.7352 14.3943C27.5844 12.0643 27.5817 8.81215 25.7284 6.48551Z" fill="#ABC4FF"/>
<path d="M32.224 9.12034L31.6143 8.35488C30.7192 7.23116 30.7179 5.6605 31.6111 4.53527C32.0135 4.02831 31.9287 3.2912 31.4217 2.8889C30.9147 2.48636 30.1777 2.57132 29.7752 3.07827C28.2 5.06296 28.2024 7.83316 29.781 9.81515L30.3907 10.5807C31.5603 12.0492 31.562 14.1019 30.3948 15.5723L29.7701 16.3595C29.3677 16.8664 29.4525 17.6035 29.9595 18.0059C30.175 18.1768 30.432 18.2598 30.6872 18.2598C31.0324 18.2598 31.3746 18.1078 31.606 17.8164L32.2306 17.0292C34.0799 14.6994 34.0772 11.4472 32.224 9.12034Z" fill="#ABC4FF"/>
<path d="M19.2328 9.12046L18.6231 8.355C17.728 7.2314 17.7267 5.66062 18.6198 4.53539C19.0222 4.02843 18.9374 3.29132 18.4304 2.8889C17.9234 2.48648 17.1864 2.57156 16.7839 3.07828C15.2088 5.06296 15.2112 7.83328 16.7898 9.81515L17.3995 10.5807C18.5691 12.0492 18.5708 14.1019 17.4037 15.5722L16.7789 16.3594C16.3765 16.8663 16.4612 17.6034 16.9682 18.0059C17.1837 18.1768 17.4405 18.2599 17.6959 18.2599C18.0411 18.2599 18.3832 18.108 18.6145 17.8166L19.2395 17.0293C21.0887 14.6995 21.086 11.4473 19.2328 9.12046Z" fill="#ABC4FF"/>
<path d="M42.4219 30.7031C41.7748 30.7031 41.25 31.2278 41.25 31.875C41.25 36.2249 39.4856 40.4998 36.4092 43.6035C35.9536 44.0631 35.957 44.8051 36.4166 45.2607C36.6451 45.4873 36.9434 45.6003 37.2416 45.6003C37.5432 45.6002 37.8449 45.4845 38.074 45.2532C41.5819 41.7142 43.5938 36.838 43.5938 31.875C43.5938 31.2278 43.069 30.7031 42.4219 30.7031Z" fill="#ABC4FF"/>
<path d="M34.4396 46.7842C34.1216 46.2204 33.4069 46.0213 32.8432 46.3392L32.8165 46.3543C32.2527 46.6724 32.0536 47.3871 32.3715 47.9508C32.5869 48.3326 32.9841 48.5471 33.3933 48.5471C33.5883 48.5471 33.7861 48.4983 33.968 48.3957L33.9947 48.3806C34.5585 48.0626 34.7576 47.3479 34.4396 46.7842Z" fill="#ABC4FF"/>
</g>
<defs>
<clipPath id="clip0">
<rect width="60" height="60" fill="white"/>
</clipPath>
</defs>
</svg>
