<svg width="60" height="60" viewBox="0 0 60 60" fill="none" xmlns="http://www.w3.org/2000/svg">
<g clip-path="url(#clip0)">
<path d="M20.7091 47.2754L12.7095 39.2758C12.319 38.8855 11.686 38.8855 11.2955 39.2758L8.2957 42.2757C7.90534 42.6662 7.90534 43.2991 8.2957 43.6896L16.2953 51.6892C16.6858 52.0795 17.3187 52.0795 17.7092 51.6892L20.7091 48.6893C21.0994 48.2989 21.0994 47.6659 20.7091 47.2754ZM17.0022 49.5683L10.4166 42.9826L12.0025 41.3967L18.5882 47.9824L17.0022 49.5683Z" fill="#ABC4FF"/>
<path d="M59.0001 8.39942C60.3333 7.06586 60.3333 4.90422 59.0001 3.57067L56.4143 0.984803C55.0626 -0.302755 52.9382 -0.302755 51.5865 0.984803L51.0005 1.57077L49.7076 0.27784L48.2937 1.69177L49.5866 2.9847L48.0007 4.57062L46.7078 3.27768L45.2938 4.69161L46.6268 6.02454C46.2198 6.59701 46.0009 7.28198 46.0008 7.98444C46.0046 8.16343 46.0219 8.34204 46.0528 8.51841L32.7215 21.8497L31.9015 21.0298C29.1746 18.3022 24.7528 18.3017 22.0252 21.0286C22.0248 21.029 22.0244 21.0294 22.024 21.0298L19.2112 23.8426C17.4949 25.5599 15.3303 26.7598 12.9645 27.3054L11.5946 27.6214C3.54801 29.4776 -1.47022 37.5054 0.385929 45.552C1.0159 48.2832 2.40095 50.7822 4.38297 52.7641L7.22082 55.602C13.0609 61.4412 22.5288 61.4404 28.3678 55.6003C30.3487 53.6191 31.7333 51.1212 32.3635 48.3913L32.6805 47.0204C33.2253 44.6545 34.425 42.4898 36.1423 40.7737L38.9552 37.9609C41.6783 35.2314 41.6783 30.8129 38.9552 28.0834L38.1352 27.2634L51.4665 13.9321C51.6429 13.963 51.8214 13.9804 52.0005 13.9841C52.7026 13.984 53.3873 13.7651 53.9594 13.3582L55.2933 14.6911L56.7072 13.2772L55.4143 11.9842L57.0002 10.3983L58.2932 11.6912L59.7071 10.2773L58.4142 8.98439L59.0001 8.39942ZM37.5412 36.547L34.7284 39.3598C32.745 41.3405 31.3589 43.8392 30.7286 46.5704L30.4126 47.9414C28.8046 54.9116 21.8504 59.2586 14.8802 57.6506C12.5143 57.1048 10.3495 55.9049 8.63275 54.188L5.7969 51.3502C0.73841 46.2916 0.738411 38.09 5.79715 33.0314C7.51381 31.3148 9.67819 30.1152 12.0436 29.5693L13.4135 29.2543C16.145 28.624 18.6441 27.2379 20.6251 25.2545L23.439 22.4417C25.3851 20.4953 28.5406 20.495 30.4871 22.4412C30.4872 22.4413 30.4875 22.4416 30.4876 22.4417L31.3076 23.2616L26.5608 28.0084C26.3758 27.9934 26.1898 27.9834 26.0018 27.9834C22.6883 27.9834 20.0022 30.6695 20.0022 33.9831C20.0022 37.2967 22.6883 39.9828 26.0018 39.9828C29.3154 39.9828 32.0015 37.2967 32.0015 33.9831C32.0015 33.7951 31.9915 33.6091 31.9745 33.4241L36.7213 28.6774L37.5412 29.4973C39.4841 31.4456 39.4841 34.5987 37.5412 36.547ZM28.8297 31.1542C30.392 32.7159 30.3925 35.2485 28.8308 36.8108C28.8304 36.8112 28.8301 36.8116 28.8297 36.8119C27.2463 38.3205 24.7574 38.3205 23.174 36.8119C21.6117 35.2501 21.6112 32.7175 23.173 31.1552C24.7348 29.5929 27.2673 29.5924 28.8297 31.1542ZM31.3346 31.2362C30.7637 30.1254 29.8595 29.2212 28.7487 28.6504L47.0008 10.3983L49.5866 12.9842L31.3346 31.2362ZM57.5862 6.98449L53.0004 11.5693C52.4413 12.1043 51.5601 12.1048 51.0005 11.5703L48.4147 8.98439C47.8628 8.43192 47.8628 7.53696 48.4147 6.98449L53.0004 2.39973C53.5525 1.84751 54.4477 1.84738 55.0001 2.39948C55.0002 2.3996 55.0003 2.39973 55.0003 2.39973L57.5862 4.98459C58.138 5.53707 58.138 6.43202 57.5862 6.98449Z" fill="#ABC4FF"/>
</g>
<defs>
<clipPath id="clip0">
<rect width="60" height="60" fill="white"/>
</clipPath>
</defs>
</svg>
