<svg width="60" height="60" viewBox="0 0 60 60" fill="none" xmlns="http://www.w3.org/2000/svg">
<g clip-path="url(#clip0)">
<path d="M32.7434 60H27.2567C27.2205 60 23.6297 59.991 22.364 59.207C21.4496 58.6412 20.5157 57.1468 20.4124 56.9782L15.0453 48.5198C14.9934 48.4381 14.9627 48.3448 14.9557 48.2482C14.9514 48.1872 14.5222 42.1033 14.2902 39.2005C14.065 36.3834 13.0867 33.9501 13.077 33.9259C13.0388 33.8325 13.0257 33.7307 13.0388 33.6306L13.1246 32.9747C12.691 32.3632 11.7279 30.5271 11.3118 25.9201C10.8783 21.1164 12.4165 19.222 13.0808 18.6387L13.3081 9.9166C13.3005 9.54372 13.351 5.70143 18.5007 2.74757C23.5404 -0.143261 29.5208 -0.0105062 29.9999 0.00466569C30.4798 -0.0105062 36.4599 -0.143261 41.4993 2.74757C46.6493 5.70172 46.6995 9.54489 46.6919 9.91689L46.9192 18.6387C47.5832 19.222 49.1217 21.1164 48.6882 25.9201C48.2718 30.5274 47.3087 32.3632 46.8754 32.9747L46.9609 33.6309C46.9737 33.7307 46.9606 33.8322 46.923 33.9256C46.9131 33.9498 45.9345 36.3919 45.7098 39.2005C45.4776 42.1033 45.0481 48.1872 45.044 48.2482C45.0373 48.3448 45.0064 48.4381 44.9544 48.5198L39.5833 56.9855C39.4844 57.1468 38.5504 58.6409 37.636 59.207C36.3703 59.991 32.7795 60 32.7434 60ZM16.1097 48.0191L21.4023 56.3602C21.6486 56.7602 22.4019 57.8575 22.9785 58.2144C23.5754 58.5843 25.6724 58.8326 27.2567 58.8326H32.7436C34.3279 58.8326 36.4249 58.5843 37.0218 58.2147C37.5978 57.8581 38.3686 56.7334 38.5936 56.3675L43.8903 48.0191C43.956 47.0916 44.316 42.0172 44.5308 39.3049C44.265 39.8216 44.0062 40.2888 43.7771 40.6453C43.4524 41.1503 43.1268 41.6026 42.8096 42.0364C42.622 42.3098 42.4236 42.5815 42.2153 42.8516C41.6878 43.5875 41.1798 44.3583 40.6768 45.4034C39.8467 47.1278 39.3574 48.6283 39.2218 49.0648L39.6653 51.5131C39.6845 51.6204 39.6737 51.731 39.6337 51.8323C39.4225 52.3644 38.3319 55.0519 37.5981 55.6993C36.8978 56.3176 35.399 55.8391 34.3948 55.4055L33.9539 56.8086C33.8775 57.0517 33.6522 57.2171 33.3972 57.2171H26.6031C26.3481 57.2171 26.1229 57.0517 26.0464 56.8083L25.6058 55.4052C24.6013 55.8388 23.1033 56.317 22.4025 55.6993C21.6687 55.0519 20.5781 52.3641 20.3669 51.8323C20.3266 51.7307 20.3158 51.6201 20.3353 51.5131L20.7785 49.0648C20.6432 48.6283 20.1536 47.1278 19.3238 45.4034C19.0142 44.7607 18.7029 44.2215 18.3863 43.7304C17.8865 43.1233 17.4273 42.4922 17.0462 41.8383C16.7749 41.4646 16.4989 41.0739 16.2232 40.6453C15.9941 40.2888 15.7353 39.8213 15.4695 39.3049C15.684 42.0172 16.044 47.0916 16.1097 48.0191ZM29.9999 56.0503H32.9683L33.242 55.1794H26.7583L27.0317 56.0503H29.9999ZM21.5135 51.5562C22.0693 52.9319 22.8408 54.5299 23.1745 54.8246C23.4033 54.934 24.3953 54.6674 25.3357 54.2472C25.2986 54.0482 25.2309 53.7559 25.106 53.3608C25.043 53.1615 24.9858 52.9343 24.9193 52.6708C24.851 52.3992 24.7734 52.0925 24.6748 51.7619L23.7283 52.7306C23.6011 52.8604 23.4225 52.9243 23.2402 52.9019C23.0596 52.8797 22.8997 52.775 22.8078 52.618L21.6714 50.683L21.5135 51.5562ZM34.6644 54.2469C35.6059 54.6665 36.6011 54.9329 36.8412 54.813C37.1601 54.5294 37.9307 52.9316 38.4865 51.5562L38.3284 50.6833L37.1919 52.6183C37.1 52.7752 36.9401 52.88 36.7595 52.9022C36.5775 52.924 36.3986 52.8604 36.2714 52.7309L35.3249 51.7625C35.2263 52.0928 35.1487 52.3997 35.0804 52.6711C35.0139 52.9343 34.9567 53.1618 34.8937 53.3608C34.7694 53.7547 34.7014 54.0468 34.6644 54.2469ZM26.4797 54.0123H33.5206C33.5679 53.7632 33.6475 53.4323 33.7812 53.0092C33.8337 52.8429 33.8871 52.6308 33.9489 52.3854C34.0298 52.0651 34.126 51.6829 34.2588 51.2604H25.7421C25.8746 51.6829 25.9708 52.0651 26.052 52.3854C26.1138 52.6308 26.1675 52.8429 26.2197 53.0095C26.3528 53.4323 26.4321 53.7632 26.4797 54.0123ZM35.7678 50.5456L36.5725 51.3689L38.0833 48.7964C38.158 48.5487 38.4217 47.7061 38.8804 46.5787C38.8719 46.5874 38.8635 46.5962 38.855 46.6049C38.2149 47.2716 37.61 47.9013 37.072 48.5046C36.4736 49.1754 36.0628 49.878 35.7678 50.5456ZM21.9167 48.7964L23.4278 51.3689L24.2325 50.5456C23.9369 49.878 23.5267 49.1757 22.9283 48.5046C22.4098 47.9234 21.8035 47.3195 21.161 46.6811C21.594 47.7565 21.8444 48.5563 21.9167 48.7964ZM29.9999 50.093H34.6929C35.0296 49.328 35.5041 48.5087 36.2011 47.7277C36.7534 47.1082 37.3652 46.471 38.0133 45.7965C39.1555 44.6069 40.3299 43.3838 41.2811 42.1517C41.4278 41.9469 41.574 41.7479 41.7193 41.5498C41.7648 41.4876 41.8106 41.4252 41.8567 41.3625C42.6856 40.1452 42.73 38.7765 42.777 37.3273C42.7997 36.6247 42.8233 35.8982 42.9383 35.17C42.9862 34.8665 42.9975 34.5167 42.9827 34.1406C42.0729 35.5542 39.9824 36.3837 38.9172 36.6387C37.713 36.9264 35.1779 37.3839 35.0702 37.4032C34.8794 37.4382 34.6839 37.3749 34.5485 37.2357C34.3784 37.0609 33.52 36.1503 33.3076 35.3926L33.2916 35.3357C32.6684 35.5113 31.5882 35.7226 29.9996 35.7226C28.4112 35.7226 27.3308 35.5111 26.7078 35.3357L26.6918 35.3926C26.4794 36.1503 25.621 37.0609 25.4509 37.2357C25.3155 37.3749 25.1195 37.4376 24.9292 37.4032C24.8219 37.3839 22.2864 36.9267 21.082 36.6387C20.017 36.384 17.9268 35.5542 17.0171 34.1406C17.0019 34.517 17.0133 34.8668 17.0611 35.17C17.1813 35.9315 17.2038 36.6577 17.2254 37.36C17.2668 38.6878 17.3056 39.9424 18.0251 41.2017C18.1106 41.319 18.1955 41.4348 18.2798 41.5498C18.6276 42.0239 18.9815 42.5062 19.3352 43.0512C20.1332 44.0132 21.054 44.9287 21.9555 45.8256C22.6205 46.4871 23.2489 47.112 23.7978 47.7274C24.4948 48.5087 24.9692 49.328 25.3059 50.093H29.9999V50.093ZM14.5052 34.4216C14.7247 34.9377 15.3905 36.487 16.0773 37.9073C16.0709 37.7364 16.0653 37.5657 16.0598 37.3962C16.0394 36.7298 16.0178 36.0409 15.9089 35.3517C15.5693 33.2 16.7253 29.3416 16.9272 28.6916V23.2944C16.9272 20.8395 16.5027 18.3084 16.0432 16.2874V28.2195C16.0432 28.2673 16.037 28.3152 16.0254 28.3616L14.5052 34.4216ZM43.0728 28.6916C43.2747 29.3416 44.4304 33.2 44.0911 35.3517C43.9878 36.0082 43.965 36.698 43.9434 37.3649C43.9376 37.5441 43.9318 37.7238 43.9245 37.9041C44.611 36.4844 45.2759 34.9374 45.4951 34.4216L43.9747 28.3613C43.963 28.3149 43.9569 28.267 43.9569 28.2192V16.2897C43.4973 18.3113 43.0728 20.8424 43.0728 23.2942V28.6916ZM17.7404 30.8641C17.6242 31.5655 17.5595 32.5587 17.8603 33.2519C18.3598 34.4029 20.2679 35.2438 21.3536 35.5035C22.2811 35.7252 24.0919 36.0631 24.821 36.1967C25.1326 35.8405 25.4888 35.3614 25.5685 35.0775L25.6268 34.8689C24.7988 34.4123 22.8626 33.3517 21.4216 32.6199C20.1428 31.9707 18.5979 31.2553 17.7404 30.8641ZM34.3732 34.8689L34.4315 35.0775C34.5109 35.3614 34.8671 35.8405 35.179 36.1967C35.9085 36.0631 37.7192 35.7249 38.6461 35.5035C39.7318 35.2438 41.6402 34.4032 42.1397 33.2519C42.442 32.5552 42.3772 31.5631 42.2605 30.8635C41.4033 31.2545 39.8575 31.9705 38.5787 32.6196C37.1371 33.3517 35.2012 34.412 34.3732 34.8689ZM26.5771 34.0607C26.6933 34.1114 27.7743 34.5552 29.9999 34.5552C32.2255 34.5552 33.3068 34.1114 33.4229 34.0607C33.6756 33.9203 36.2434 32.4965 38.05 31.5792C39.5532 30.8159 41.4162 29.964 42.1345 29.6386C42.0181 29.2264 41.9364 28.9693 41.9335 28.9591C41.9151 28.9016 41.9054 28.8415 41.9054 28.7811V23.2944C41.9054 18.5891 43.3564 13.7612 43.839 12.2858C43.4547 12.0722 42.6427 11.6471 40.9557 10.8345C38.8121 9.80252 37.0694 9.49441 36.2416 9.4028L34.7148 23.5597C34.6862 23.824 34.4826 24.0358 34.2197 24.0746L30.0848 24.6821C30.0282 24.6903 29.971 24.6903 29.915 24.6821L25.7803 24.0743C25.5174 24.0358 25.3135 23.824 25.2852 23.5597L23.9547 11.2258C23.9533 11.2164 23.9524 11.2074 23.9515 11.1978L23.7581 9.4028C22.9309 9.49441 21.1879 9.80252 19.044 10.8348C17.3567 11.6471 16.545 12.0722 16.1607 12.2858C16.6433 13.7615 18.0943 18.5891 18.0943 23.2944V28.7814C18.0943 28.8418 18.0849 28.9019 18.0666 28.9591C18.0631 28.9693 17.9817 29.2267 17.8652 29.6389C18.5839 29.9643 20.4465 30.8162 21.9497 31.5795C23.7569 32.4965 26.3245 33.9206 26.5771 34.0607ZM45.1239 28.1474L46.0952 32.0195C46.4681 31.3391 47.1844 29.5928 47.5255 25.8156C47.9871 20.7035 46.0643 19.4449 46.0448 19.4326C45.8784 19.329 45.7649 19.1423 45.7597 18.9462L45.5245 9.93206C45.5242 9.91893 45.5242 9.9058 45.5248 9.89268C45.5286 9.75584 45.5703 6.42881 40.9184 3.7603C36.0745 0.981796 30.0818 1.17086 30.0215 1.17203C30.0072 1.17261 29.9917 1.17261 29.9777 1.17203C29.9185 1.16969 23.9258 0.981212 19.081 3.7603C14.4291 6.42881 14.4705 9.75584 14.4749 9.89618C14.4752 9.90697 14.4752 9.92127 14.4749 9.93206L14.2397 18.9462C14.2345 19.1505 14.1227 19.3372 13.945 19.4381C13.9351 19.4446 12.0124 20.7033 12.474 25.8156C12.8139 29.5815 13.5269 31.3286 13.9048 32.0171L14.8755 28.1474V12.0468C14.8735 11.9601 14.891 11.8752 14.9251 11.7976C14.9248 11.797 14.9257 11.7968 14.9257 11.7965C14.926 11.7962 14.9263 11.7959 14.9263 11.795C14.9306 11.7857 14.935 11.7763 14.94 11.767C14.9397 11.7664 14.9403 11.7658 14.9406 11.7658C14.9409 11.7652 14.9411 11.7649 14.9411 11.7647C14.9604 11.7273 14.984 11.692 15.0112 11.6593C15.0199 11.6485 15.0301 11.6366 15.045 11.622C15.071 11.5957 15.0999 11.5721 15.1308 11.5508C15.3677 11.376 16.0779 10.9673 18.5375 9.78297C21.7945 8.21472 24.1776 8.19663 24.2774 8.19663C24.5753 8.19663 24.8257 8.42129 24.8575 8.71773L25.0567 10.5649H34.9424L35.1417 8.71773C35.1735 8.42129 35.4238 8.19663 35.7217 8.19663C35.8215 8.19663 38.2047 8.21472 41.4617 9.78297C43.9283 10.9705 44.6352 11.3781 44.8701 11.552C44.8993 11.5718 44.9261 11.5943 44.9506 11.6188C44.969 11.6366 44.981 11.6509 44.9915 11.6634C44.9985 11.6722 45.0055 11.6809 45.0119 11.69C45.0536 11.7472 45.0843 11.8116 45.1029 11.879C45.1032 11.8793 45.1032 11.8793 45.1032 11.8793C45.1178 11.9327 45.1248 11.9887 45.1236 12.045V28.1474H45.1239ZM26.3968 22.9852L29.9999 23.5144L33.6032 22.9852L34.8169 11.732H25.1831L26.3968 22.9852Z" fill="#ABC4FF"/>
</g>
<defs>
<clipPath id="clip0">
<rect width="60" height="60" fill="white"/>
</clipPath>
</defs>
</svg>
