<svg width="60" height="60" viewBox="0 0 60 60" fill="none" xmlns="http://www.w3.org/2000/svg">
<g clip-path="url(#clip0)">
<path d="M55.3705 6.35056L45.1033 0.545474C44.0406 -0.0536957 42.7725 -0.164448 41.6223 0.238137C40.4721 0.642936 39.5523 1.52397 39.0999 2.65586C38.6713 3.72683 38.6951 4.89693 39.1653 5.94963C39.6354 7.00123 40.491 7.7992 41.573 8.19403L47.1117 10.218L46.6189 10.7109L25.5699 31.7593L23.6234 33.7064L18.3876 28.4711C18.3472 28.4307 18.2962 28.4119 18.2514 28.3803C18.201 28.3443 18.1594 28.2989 18.1013 28.2729L12.6595 25.8214C12.2929 25.6563 11.861 25.735 11.5774 26.0196L2.72778 34.8693C2.44314 35.1539 2.36451 35.5847 2.52953 35.9513L4.98103 41.3931C5.02699 41.4961 5.09234 41.5825 5.16599 41.66C5.17152 41.6656 5.17374 41.6739 5.17928 41.6794L20.3086 56.8076C20.349 56.8481 20.4 56.8669 20.4448 56.8985C20.4952 56.9339 20.5362 56.9799 20.5949 57.0059L22.9439 58.0647H5.90194C5.367 58.0647 4.93451 58.4972 4.93451 59.0321C4.93451 59.567 5.367 60.0001 5.90194 60.0001H45.5806C46.1155 60.0001 46.5486 59.567 46.5486 59.0321C46.5486 58.4972 46.1155 58.0647 45.5806 58.0647H28.3132L35.9679 50.41C36.2525 50.1254 36.3311 49.6946 36.1667 49.328L33.7152 43.8862C33.6897 43.8302 33.6459 43.7909 33.6116 43.7427C33.5789 43.6951 33.5579 43.6409 33.5164 43.5999L33.4914 43.575C33.4909 43.5744 33.4909 43.5738 33.4903 43.5738L28.9384 39.0219L30.8849 37.0749L52.5918 15.368C52.8399 15.1205 53.0298 14.8403 53.1937 14.549L54.9812 13.7715C56.4986 13.1136 57.4798 11.619 57.4798 9.96385C57.4804 8.47035 56.6719 7.08595 55.3705 6.35056V6.35056ZM51.25 13.9736L48.6722 11.3953C49.3866 10.712 50.5224 10.7203 51.224 11.4219C51.9256 12.1241 51.9345 13.2598 51.25 13.9736V13.9736ZM45.9876 19.2355L43.4098 16.6577L44.6724 15.3946L47.2507 17.9729L45.9876 19.2355ZM43.3567 21.8669L40.7784 19.2886L42.0415 18.0261L44.6193 20.6044L43.3567 21.8669ZM40.7258 24.4979L38.1475 21.9196L39.41 20.657L41.9883 23.2353L40.7258 24.4979ZM38.0943 27.1288L35.5165 24.551L36.7791 23.2885L39.3574 25.8662L38.0943 27.1288ZM35.4634 29.7603L32.8851 27.182L34.1482 25.9194L36.726 28.4977L35.4634 29.7603ZM32.8325 32.3912L30.2541 29.8134L31.5167 28.5503L34.095 31.1286L32.8325 32.3912ZM28.8858 31.1818L31.4641 33.7595L30.201 35.0227L27.6232 32.4443L28.8858 31.1818ZM12.4734 27.8609L16.028 29.4623L6.17051 39.3199L4.56848 35.7653L12.4734 27.8609ZM26.2222 57.4184L22.6676 55.8164L32.5251 45.96L34.1272 49.5146L26.2222 57.4184ZM20.9925 54.7548L7.23207 40.9955L17.7031 30.5239L22.9395 35.7597L26.8856 39.7064L31.4641 44.2843L20.9925 54.7548ZM24.9917 35.0753L26.2549 33.8127L28.8326 36.391L27.5701 37.6536L24.9917 35.0753ZM48.6191 16.6046L46.0408 14.0262L47.3033 12.7637L49.8817 15.342L48.6191 16.6046ZM54.2104 11.9973L53.6467 12.2426C53.547 11.4418 53.2059 10.6666 52.5923 10.053C51.6648 9.12656 50.3712 8.78987 49.1751 9.03519C49.0737 8.92499 48.9547 8.8303 48.8046 8.77548L42.2381 6.37603C41.6511 6.16117 41.1882 5.72979 40.9329 5.15997C40.6787 4.58904 40.6654 3.95498 40.8974 3.37464C41.1428 2.76218 41.6411 2.28373 42.2641 2.06555C42.8888 1.84626 43.5771 1.90662 44.1508 2.23112L54.4181 8.03454C55.1125 8.42771 55.5444 9.16699 55.5444 9.96496C55.5444 10.8471 55.0211 11.6456 54.2104 11.9973Z" fill="#ABC4FF"/>
<path d="M15.7035 38.9953C13.5128 41.1866 13.5128 44.7511 15.7035 46.9418C16.7988 48.0372 18.2375 48.5854 19.6767 48.5854C21.1159 48.5854 22.5546 48.0372 23.65 46.9418C25.8406 44.7511 25.8406 41.1866 23.65 38.9953C21.4593 36.8047 17.8942 36.8047 15.7035 38.9953ZM22.2816 45.5735C20.8446 47.0099 18.5083 47.0099 17.0724 45.5735C15.6359 44.137 15.6354 41.8007 17.0724 40.3642C17.7906 39.646 18.7337 39.2866 19.6767 39.2866C20.6203 39.2866 21.5634 39.646 22.2816 40.3642C23.7181 41.8007 23.7181 44.137 22.2816 45.5735Z" fill="#ABC4FF"/>
<path d="M9.18631 15.311C9.27436 15.708 9.6033 16.0076 10.007 16.0602C10.4151 16.1028 10.8044 15.9051 10.9905 15.5435L12.186 13.2233L13.0006 20.4482C13.056 20.9427 13.4757 21.3076 13.962 21.3076C13.9974 21.3076 14.0345 21.3054 14.0716 21.3021C14.6027 21.2412 14.9842 20.7622 14.9249 20.2311L13.751 9.82927C13.7028 9.4062 13.3833 9.06287 12.9635 8.98645C12.5399 8.90338 12.1235 9.11603 11.9285 9.49535L10.4943 12.2813L9.43108 7.51178C9.31479 6.99014 8.79591 6.66729 8.27593 6.77749C7.75429 6.89378 7.42646 7.41155 7.54275 7.93319L9.18631 15.311Z" fill="#ABC4FF"/>
</g>
<defs>
<clipPath id="clip0">
<rect width="60" height="60" fill="white"/>
</clipPath>
</defs>
</svg>
