<svg width="60" height="60" viewBox="0 0 60 60" fill="none" xmlns="http://www.w3.org/2000/svg">
<g clip-path="url(#clip0)">
<path d="M45.2668 13.1051C45.6812 13.3808 46.2347 13.3617 46.6304 13.0606C47.0032 12.7769 47.1692 12.2794 47.0485 11.8281C46.9192 11.3442 46.4806 10.9887 45.9806 10.9616C45.4829 10.9347 45.0118 11.2375 44.8285 11.7003C44.6287 12.2045 44.8108 12.8063 45.2668 13.1051Z" fill="#ABC4FF"/>
<path d="M50.3725 15.4407C49.9813 14.9251 49.2465 14.8238 48.7306 15.2153C48.2151 15.6064 48.1141 16.3415 48.5052 16.8572C53.1375 22.964 55.6645 30.2013 55.8399 37.8375L51.2889 39.2817C50.807 35.8256 50.0348 32.6025 48.9879 29.6828C48.9878 29.6826 48.9878 29.6824 48.9877 29.6821C47.9214 26.7051 46.5424 23.9686 44.8885 21.5482C44.8879 21.5474 44.8875 21.5467 44.887 21.5458C39.3357 13.4218 30.5008 8.48233 18.6125 6.85133L20.0623 2.35323C27.7396 2.52456 35.0195 5.01782 41.1669 9.5901C41.377 9.74631 41.6222 9.82178 41.8653 9.82178C42.2232 9.82178 42.5765 9.6583 42.8066 9.34916C43.1928 8.82979 43.0849 8.09585 42.5655 7.70949C35.7846 2.66588 27.7088 0 19.2118 0C18.7031 0 18.2524 0.32824 18.0964 0.812456L9.09649 28.7378L5.98917 38.3782C5.98718 38.3844 5.9853 38.3908 5.98343 38.397L1.99931 50.759C1.54123 52.1822 1.91329 53.7257 2.97032 54.7873C4.03801 55.8594 5.59929 56.241 7.04514 55.782L24.1755 50.3453V55.0403C24.1755 57.7028 26.3166 59.9268 28.9484 59.9981C28.9947 59.9994 29.041 60.0001 29.0872 60.0001C30.3793 60.0001 31.5939 59.5084 32.5201 58.6068C33.4717 57.6806 33.9959 56.4415 33.9959 55.1178V47.2285L40.1517 45.2748V50.5896C40.1517 52.866 42.0147 54.7179 44.3048 54.7179C45.4112 54.7179 46.4525 54.2898 47.2378 53.5114C48.0237 52.7303 48.4566 51.6926 48.4566 50.5894V42.639L57.3759 39.8087C57.8627 39.6544 58.1934 39.2024 58.1934 38.6918C58.1934 30.226 55.489 22.1858 50.3725 15.4407ZM43.4345 23.5972C44.6157 25.4389 45.6346 27.4665 46.4737 29.6445C45.984 29.909 45.4324 30.0501 44.866 30.0501C42.9998 30.0501 41.4817 28.5319 41.4817 26.6657C41.4817 25.3358 42.2692 24.1442 43.4345 23.5972ZM12.1142 36.5576C11.1728 37.4917 9.90262 37.9497 8.61978 37.8574L11.2764 29.6145C11.5791 29.7981 11.8606 30.0178 12.1132 30.2684C12.9607 31.1093 13.4274 32.2265 13.4274 33.4141C13.4273 34.6009 12.961 35.7174 12.1142 36.5576ZM8.27689 52.9316C8.29365 51.1031 9.78637 49.6203 11.6189 49.6203C12.7108 49.6203 13.7144 50.1586 14.3312 51.0104L8.27689 52.9316ZM27.2815 46.2807C25.5684 47.981 22.7809 47.9809 21.0677 46.2807C20.2406 45.46 19.7853 44.3696 19.7853 43.2104C19.7853 42.051 20.2407 40.9607 21.0677 40.1399C21.9244 39.2898 23.0495 38.8648 24.1747 38.8648C25.2999 38.8648 26.425 39.2898 27.2817 40.1399C28.1086 40.9605 28.564 42.0511 28.564 43.2104C28.5639 44.3696 28.1085 45.4602 27.2815 46.2807ZM46.9301 40.6649C46.4435 40.8195 46.1129 41.2713 46.1129 41.7818V50.5896C46.1129 51.0638 45.9256 51.511 45.5867 51.8479C45.2443 52.1873 44.789 52.3742 44.3048 52.3742C43.3071 52.3742 42.4954 51.5736 42.4954 50.5896V43.6732C42.4954 43.2995 42.3171 42.9483 42.0156 42.7275C41.714 42.5068 41.3252 42.4432 40.969 42.5563L32.4694 45.254C31.9827 45.4085 31.652 45.8604 31.652 46.3709V55.1178C31.652 55.8035 31.3798 56.4461 30.8854 56.9271C30.3834 57.4158 29.721 57.6761 29.0119 57.6553C27.6374 57.6181 26.5192 56.445 26.5192 55.0403V49.4811C27.4001 49.1576 28.2261 48.6454 28.9325 47.9444C28.9325 47.9444 28.9325 47.9444 28.9325 47.9443C30.2062 46.6803 30.9077 44.999 30.9077 43.2103C30.9077 41.4214 30.2062 39.7403 28.9325 38.4763C26.309 35.8728 22.0404 35.8726 19.4168 38.4762C18.143 39.7402 17.4416 41.4216 17.4416 43.2103C17.4416 44.999 18.143 46.6803 19.4168 47.9443C19.8261 48.3505 20.2755 48.6933 20.7524 48.9728L16.6325 50.2804C15.6573 48.4667 13.7358 47.2768 11.6189 47.2768C8.48373 47.2768 5.93304 49.8276 5.93304 52.9628C5.93304 53.1845 5.94581 53.4048 5.97112 53.6233C5.47683 53.6706 4.99437 53.4987 4.63109 53.1338C4.18918 52.6899 4.0393 52.0707 4.2302 51.4776L7.88678 40.1319C8.24056 40.1871 8.59517 40.2145 8.94814 40.2145C10.7256 40.2145 12.4551 39.5216 13.7651 38.2215C15.0586 36.9379 15.771 35.2306 15.771 33.4143C15.771 31.5973 15.0583 29.8893 13.764 28.6051C13.2489 28.0938 12.6541 27.6677 12.0082 27.3438L17.882 9.11866C28.683 10.5204 36.812 14.7348 42.0807 21.6609C40.3091 22.654 39.1378 24.5573 39.1378 26.6661C39.1378 29.8245 41.7075 32.3942 44.8659 32.3942C45.6978 32.3942 46.5108 32.2141 47.2533 31.8736C48.0459 34.3789 48.6386 37.1028 49.0213 40.001L46.9301 40.6649Z" fill="#ABC4FF"/>
<path d="M31.6135 19.8432C31.6135 17.9587 30.8744 16.1876 29.5325 14.8557C26.7683 12.1128 22.2705 12.1128 19.5063 14.8557C18.1644 16.1875 17.4253 17.9586 17.4253 19.8432C17.4253 21.7277 18.1644 23.4989 19.5063 24.8307C20.8884 26.2022 22.7039 26.888 24.5193 26.888C26.3348 26.888 28.1503 26.2022 29.5324 24.8307C30.8744 23.4989 31.6135 21.7277 31.6135 19.8432ZM27.8816 23.1669C26.0277 25.0066 23.0111 25.0066 21.1572 23.1669C20.2619 22.2786 19.769 21.0983 19.769 19.8432C19.769 18.5882 20.2619 17.4078 21.1572 16.5196C22.0842 15.5996 23.3018 15.1398 24.5193 15.1398C25.737 15.1398 26.9545 15.5998 27.8815 16.5196C28.7768 17.4078 29.2697 18.5882 29.2697 19.8432C29.2698 21.0983 28.7769 22.2786 27.8816 23.1669Z" fill="#ABC4FF"/>
<path d="M36.194 29.9002C33.8104 27.4386 29.8559 27.3873 27.3787 29.7856C27.1554 30.002 27.0271 30.298 27.0221 30.6086C27.0172 30.9193 27.1357 31.2194 27.352 31.4427L34.3673 38.6877C34.5971 38.9251 34.9029 39.0444 35.2093 39.0444C35.5028 39.0444 35.7969 38.9347 36.0243 38.7145C38.5014 36.316 38.5776 32.362 36.194 29.9002ZM35.1124 36.0881L29.9744 30.782C31.4568 30.0344 33.3067 30.2878 34.5101 31.5307C35.7138 32.7736 35.9072 34.6306 35.1124 36.0881Z" fill="#ABC4FF"/>
</g>
<defs>
<clipPath id="clip0">
<rect width="60" height="60" fill="white"/>
</clipPath>
</defs>
</svg>
